<?xml version="1.0" standalone="no"?>
<!DOCTYPE svg PUBLIC "-//W3C//DTD SVG 20010904//EN"
 "http://www.w3.org/TR/2001/REC-SVG-20010904/DTD/svg10.dtd">
<svg version="1.0" xmlns="http://www.w3.org/2000/svg"
 width="2511.000000pt" height="2511.000000pt" viewBox="0 0 2511.000000 2511.000000"
 preserveAspectRatio="xMidYMid meet">
<metadata>
Created by potrace 1.14, written by Peter Selinger 2001-2017
</metadata>
<g transform="translate(0.000000,2511.000000) scale(0.100000,-0.100000)"
fill="#000000" stroke="none">
<path d="M19480 22581 c-29 -23 -363 -279 -494 -379 -48 -37 -116 -88 -150
-115 -33 -26 -154 -118 -267 -205 -113 -86 -221 -168 -239 -182 -17 -14 -85
-65 -150 -115 -65 -49 -155 -119 -201 -154 -114 -88 -277 -212 -374 -285 -44
-34 -82 -63 -85 -66 -3 -3 -50 -39 -105 -80 -54 -41 -108 -83 -120 -92 -17
-14 -154 -119 -589 -451 -37 -28 -94 -72 -126 -97 -32 -25 -97 -74 -144 -110
-48 -36 -92 -70 -99 -75 -12 -11 -144 -112 -422 -324 -88 -67 -167 -127 -175
-134 -8 -7 -62 -48 -120 -92 -58 -43 -107 -81 -110 -85 -3 -3 -21 -17 -40 -30
-19 -13 -37 -27 -40 -30 -7 -7 -59 -47 -205 -158 -66 -50 -160 -121 -210 -159
-128 -99 -314 -241 -376 -289 -174 -133 -486 -371 -496 -377 -14 -9 -16 -14
41 126 60 149 146 436 170 572 3 17 8 41 11 55 8 42 34 222 40 278 3 28 7 76
10 105 7 63 7 408 0 457 -2 19 -7 67 -10 105 -2 39 -7 81 -9 95 -3 14 -7 48
-11 75 -3 28 -8 57 -10 65 -3 8 -7 29 -9 45 -13 100 -76 347 -127 500 -53 157
-123 325 -136 325 -28 0 -380 -125 -478 -169 -22 -10 -69 -31 -105 -46 -96
-40 -321 -154 -435 -220 -281 -162 -539 -354 -749 -555 -43 -41 -83 -80 -90
-86 -28 -27 -149 -165 -196 -224 -28 -36 -56 -72 -63 -80 -69 -87 -199 -303
-262 -435 -102 -216 -205 -546 -241 -774 -3 -18 -7 -41 -9 -50 -4 -21 -22
-153 -29 -210 -14 -111 -20 -232 -20 -423 -1 -115 -4 -208 -7 -208 -16 0 -74
310 -93 494 -11 106 -12 409 -3 593 2 30 -2 58 -7 62 -6 5 -31 6 -56 1 -25 -4
-70 -11 -100 -14 -30 -4 -66 -8 -80 -11 -14 -2 -41 -6 -60 -9 -55 -8 -111 -17
-134 -22 -11 -2 -46 -8 -76 -14 -123 -22 -146 -28 -360 -82 -497 -125 -925
-324 -1291 -600 -72 -54 -149 -115 -172 -135 -90 -80 -291 -282 -355 -357 -37
-43 -72 -84 -77 -90 -27 -28 -178 -230 -236 -316 -198 -291 -384 -637 -529
-985 -18 -44 -41 -99 -51 -121 -10 -23 -61 -158 -114 -300 -53 -143 -142 -380
-197 -529 -237 -637 -433 -1024 -682 -1345 -151 -195 -356 -409 -533 -557 -12
-10 -31 -26 -42 -36 -120 -99 -326 -242 -476 -329 -55 -32 -96 -58 -91 -58 5
0 113 28 240 61 127 34 245 65 261 69 155 40 430 130 525 172 203 91 329 162
490 277 58 41 107 77 110 80 3 4 21 18 40 32 19 14 80 64 136 110 97 81 136
114 329 283 148 130 143 127 109 81 -42 -56 -52 -71 -164 -240 -55 -82 -104
-155 -110 -162 -5 -7 -10 -14 -10 -16 0 -2 -32 -59 -71 -128 -73 -126 -186
-349 -228 -449 -13 -30 -32 -73 -41 -95 -120 -267 -246 -727 -286 -1035 -3
-25 -7 -56 -10 -70 -26 -157 -26 -679 1 -880 2 -19 7 -55 10 -80 4 -25 8 -61
11 -80 9 -77 60 -317 95 -449 116 -443 324 -898 573 -1251 56 -79 162 -218
176 -230 3 -3 16 -18 29 -35 106 -139 405 -436 845 -839 188 -172 272 -253
466 -446 293 -291 449 -476 577 -680 77 -124 160 -319 178 -417 18 -100 23
-204 14 -258 -4 -22 -10 -57 -13 -78 -17 -107 -113 -290 -229 -434 -37 -47
-67 -86 -65 -88 4 -3 193 37 258 54 338 90 646 257 846 457 201 201 338 512
371 846 16 156 8 397 -18 558 -19 117 -91 373 -110 395 -5 5 -9 15 -9 23 0 27
-131 277 -204 386 -40 61 -110 158 -157 216 -85 106 -330 357 -428 439 -30 25
-59 50 -65 56 -37 36 -361 283 -419 320 -45 29 -23 28 29 -1 511 -285 1016
-633 1519 -1048 146 -121 372 -315 450 -387 17 -15 41 -38 55 -49 23 -20 103
-94 319 -295 97 -89 766 -759 806 -805 17 -19 65 -75 108 -123 332 -376 594
-793 719 -1147 30 -86 76 -234 82 -266 2 -16 12 -61 20 -100 53 -243 68 -625
33 -844 -3 -14 -8 -47 -12 -75 -4 -27 -11 -68 -17 -90 -6 -22 -11 -47 -13 -55
-28 -143 -119 -366 -215 -525 -241 -397 -722 -734 -1325 -928 -114 -37 -202
-62 -245 -71 -14 -3 -34 -7 -45 -10 -75 -17 -164 -36 -189 -40 -36 -6 -43 -13
-19 -19 43 -12 281 -67 313 -72 19 -3 60 -10 90 -15 30 -6 69 -12 85 -15 17
-3 39 -7 50 -9 11 -3 52 -8 90 -11 39 -4 77 -8 85 -10 102 -26 810 -26 947 -1
10 2 50 7 88 11 110 10 325 51 503 96 145 35 437 129 517 164 17 8 48 21 70
30 160 64 384 180 544 282 75 48 141 91 146 95 6 4 61 47 124 95 104 80 333
296 424 400 195 223 390 551 521 875 70 175 177 538 200 683 3 17 12 71 20
120 8 50 18 117 21 150 3 33 8 69 10 80 20 105 28 628 12 820 -15 169 -23 242
-38 320 -5 28 -11 70 -14 95 -15 120 -88 424 -149 621 -115 370 -268 722 -461
1060 -63 111 -315 501 -334 519 -4 3 -35 43 -71 90 -87 115 -317 392 -395 476
-5 6 -53 57 -105 114 -52 57 -140 151 -195 208 -55 58 -118 124 -140 147 -37
39 -408 425 -500 520 -42 43 -289 304 -347 366 -18 19 -71 77 -118 129 -47 51
-92 100 -101 109 -13 13 -231 264 -313 361 -315 370 -634 845 -825 1227 -143
286 -267 626 -317 868 -10 52 -14 72 -19 100 -3 17 -7 41 -10 55 -3 14 -10 66
-15 115 -6 50 -13 106 -16 125 -6 41 -5 401 1 445 2 17 5 45 7 63 3 47 16 39
16 -10 0 -60 12 -250 17 -268 2 -8 7 -37 10 -65 15 -111 19 -135 40 -233 95
-436 277 -780 554 -1051 64 -62 109 -100 251 -214 24 -19 178 -119 263 -171
155 -93 637 -326 675 -326 6 0 12 -4 12 -10 0 -5 6 -10 13 -10 11 0 110 -40
227 -92 14 -6 34 -14 45 -19 278 -116 549 -241 578 -267 9 -8 17 -12 17 -9 0
4 34 -14 76 -38 42 -25 77 -45 79 -45 4 0 130 -82 164 -107 224 -162 424 -356
570 -551 44 -59 84 -111 88 -117 4 -5 39 -57 77 -115 207 -312 327 -440 481
-511 123 -56 298 -74 447 -45 305 60 491 238 559 533 12 54 23 99 24 101 2 2
31 -4 66 -13 35 -9 81 -19 104 -22 54 -7 221 -7 268 1 20 3 54 9 75 12 70 10
207 56 287 96 281 140 455 373 493 657 7 57 6 214 -2 386 -16 337 -28 362
-297 637 -285 290 -381 392 -459 488 -25 30 -48 57 -51 60 -15 13 -152 206
-210 295 -35 56 -70 110 -77 120 -7 11 -18 32 -25 48 -6 15 -15 27 -19 27 -4
0 -8 5 -8 11 0 6 -15 36 -33 67 -129 223 -302 660 -407 1022 -39 135 -114 438
-123 495 -3 17 -12 64 -20 105 -21 105 -30 153 -33 170 -1 8 -9 53 -19 100 -9
47 -19 99 -22 115 -3 17 -18 95 -35 175 -16 80 -32 156 -34 170 -3 14 -14 61
-26 105 -11 44 -21 85 -22 90 -22 95 -107 344 -152 445 -159 352 -377 660
-695 981 l-77 77 57 75 c60 80 388 504 484 627 32 41 71 90 85 109 15 19 36
46 47 61 21 29 89 117 240 311 49 64 100 129 112 145 23 29 575 744 618 799
28 36 551 712 646 835 36 47 175 227 309 400 134 173 321 414 414 535 93 121
229 296 300 388 72 93 164 212 204 265 41 54 81 106 90 117 32 38 74 95 70 95
-2 0 -15 -9 -28 -19z m-7363 -7973 c-3 -7 -5 -2 -5 12 0 14 2 19 5 13 2 -7 2
-19 0 -25z"/>
</g>
</svg>
