<svg width="31" height="30" viewBox="0 0 31 30" fill="none" xmlns="http://www.w3.org/2000/svg">
<path d="M15.721 7.30838C11.4635 7.30838 8.02943 10.7425 8.02943 15C8.02943 19.2575 11.4635 22.6916 15.721 22.6916C19.9786 22.6916 23.4127 19.2575 23.4127 15C23.4127 10.7425 19.9786 7.30838 15.721 7.30838ZM15.721 20.0006C12.9697 20.0006 10.7205 17.758 10.7205 15C10.7205 12.242 12.963 9.99944 15.721 9.99944C18.4791 9.99944 20.7216 12.242 20.7216 15C20.7216 17.758 18.4724 20.0006 15.721 20.0006ZM25.5213 6.99375C25.5213 7.99119 24.718 8.7878 23.7273 8.7878C22.7299 8.7878 21.9333 7.98449 21.9333 6.99375C21.9333 6.00301 22.7366 5.19971 23.7273 5.19971C24.718 5.19971 25.5213 6.00301 25.5213 6.99375ZM30.6156 8.81457C30.5018 6.41136 29.9529 4.28261 28.1923 2.52873C26.4384 0.774852 24.3097 0.225929 21.9065 0.105433C19.4296 -0.0351445 12.0058 -0.0351445 9.52893 0.105433C7.13241 0.219235 5.00366 0.768158 3.24308 2.52203C1.48251 4.27591 0.940284 6.40466 0.819789 8.80788C0.679211 11.2847 0.679211 18.7086 0.819789 21.1854C0.93359 23.5886 1.48251 25.7174 3.24308 27.4713C5.00366 29.2251 7.12571 29.7741 9.52893 29.8946C12.0058 30.0351 19.4296 30.0351 21.9065 29.8946C24.3097 29.7808 26.4384 29.2318 28.1923 27.4713C29.9462 25.7174 30.4951 23.5886 30.6156 21.1854C30.7562 18.7086 30.7562 11.2914 30.6156 8.81457ZM27.4158 23.843C26.8936 25.1551 25.8828 26.1659 24.5641 26.6947C22.5893 27.478 17.9034 27.2972 15.721 27.2972C13.5387 27.2972 8.84612 27.4713 6.87803 26.6947C5.56597 26.1726 4.55515 25.1618 4.0263 23.843C3.24308 21.8682 3.42383 17.1823 3.42383 15C3.42383 12.8177 3.24978 8.12507 4.0263 6.15698C4.54845 4.84492 5.55927 3.8341 6.87803 3.30525C8.85281 2.52203 13.5387 2.70278 15.721 2.70278C17.9034 2.70278 22.596 2.52873 24.5641 3.30525C25.8761 3.8274 26.887 4.83822 27.4158 6.15698C28.199 8.13176 28.0183 12.8177 28.0183 15C28.0183 17.1823 28.199 21.8749 27.4158 23.843Z" fill="url(#paint0_linear_208_34)"/>
<defs>
<linearGradient id="paint0_linear_208_34" x1="0.714355" y1="0" x2="30.7144" y2="30" gradientUnits="userSpaceOnUse">
<stop stop-color="#FCB3D7"/>
<stop offset="1" stop-color="#B3F5FF"/>
</linearGradient>
</defs>
</svg>
