<svg width="34" height="32" viewBox="0 0 34 32" fill="none" xmlns="http://www.w3.org/2000/svg">
<path d="M11.01 29.5922L7.44238 30.3479C7.33211 30.3717 7.21964 30.3835 7.10689 30.383C6.73272 30.3824 6.37006 30.2523 6.07927 30.0144C5.78848 29.7766 5.58712 29.4452 5.50871 29.0757L1.00735 7.38695C0.963107 7.17544 0.960567 6.95719 0.999875 6.74468C1.03918 6.53217 1.11957 6.32957 1.23643 6.14846C1.3533 5.96736 1.50436 5.8113 1.68097 5.68921C1.85757 5.56711 2.05626 5.48138 2.26569 5.4369L13.2911 3.09856L12.2532 8.03404L7.10255 8.58243C6.73777 8.62941 6.40183 8.8072 6.15592 9.08339C5.91001 9.35959 5.7705 9.71582 5.76278 10.0872V22.5652C5.76886 22.9365 5.90795 23.2931 6.15429 23.5687C6.40063 23.8444 6.73751 24.0205 7.10255 24.0645L8.8397 24.2389L8.53243 25.6976C8.35837 26.5452 8.52038 27.428 8.98366 28.1562C9.44693 28.8845 10.1745 29.4001 11.01 29.5922Z" fill="url(#paint0_linear_208_37)"/>
<path d="M13.9567 7.84651L15.2226 1.82958C15.3027 1.46105 15.5046 1.13104 15.7951 0.893832C16.0855 0.656624 16.4473 0.52634 16.8208 0.524414C16.9336 0.524544 17.0461 0.537044 17.1562 0.561701L32.3649 3.83231C32.7867 3.9247 33.1553 4.18172 33.3904 4.54738C33.6255 4.91304 33.708 5.35772 33.62 5.78457L28.5269 29.986C28.4482 30.3545 28.2471 30.6847 27.957 30.9219C27.6669 31.1591 27.3052 31.289 26.932 31.2901C26.8192 31.2901 26.7068 31.278 26.5965 31.2538L11.3889 27.9888C10.9668 27.8966 10.5978 27.6395 10.3626 27.2735C10.1275 26.9075 10.0453 26.4624 10.1339 26.0354L10.478 24.4001L26.1796 25.9795C26.3498 25.9994 26.5223 25.9822 26.6854 25.9293C26.8486 25.8763 26.9986 25.7887 27.1255 25.6724C27.2524 25.5561 27.3531 25.4137 27.4211 25.2548C27.489 25.0959 27.5225 24.9241 27.5194 24.7511V7.76862C27.5227 7.59583 27.4892 7.42433 27.4212 7.26575C27.3532 7.10717 27.2523 6.96522 27.1252 6.84948C26.9982 6.73373 26.848 6.64689 26.6849 6.59486C26.5217 6.54284 26.3494 6.52682 26.1796 6.5479L13.9567 7.84651Z" fill="url(#paint1_linear_208_37)"/>
<path d="M22.8997 10.3044L8.65402 11.332C8.4124 11.3545 8.18751 11.4663 8.02257 11.6461C7.85763 11.8259 7.76429 12.0609 7.76048 12.306V20.795C7.76283 21.0405 7.85569 21.2764 8.02091 21.4565C8.18613 21.6365 8.41185 21.7479 8.65402 21.7689L22.8997 22.7966C22.9477 22.8017 22.9961 22.8017 23.0441 22.7966C23.2063 22.7831 23.3609 22.721 23.488 22.6182C23.6151 22.5155 23.7089 22.3767 23.7574 22.2197C23.7842 22.1346 23.7974 22.0458 23.7965 21.9565V11.1511C23.7981 11.0344 23.7756 10.9187 23.7302 10.8114C23.6849 10.7041 23.6179 10.6076 23.5334 10.528C23.4489 10.4485 23.3489 10.3877 23.2397 10.3495C23.1306 10.3114 23.0148 10.2968 22.8997 10.3066V10.3044ZM11.9025 16.4353C11.9147 16.5443 11.904 16.6546 11.871 16.7591C11.8381 16.8636 11.7837 16.9599 11.7114 17.0416C11.6391 17.1234 11.5505 17.1888 11.4514 17.2336C11.3524 17.2784 11.245 17.3016 11.1365 17.3016C11.028 17.3016 10.9207 17.2784 10.8216 17.2336C10.7225 17.1888 10.6339 17.1234 10.5616 17.0416C10.4893 16.9599 10.4349 16.8636 10.402 16.7591C10.3691 16.6546 10.3583 16.5443 10.3705 16.4353V14.3613C10.3583 14.2524 10.3691 14.142 10.402 14.0376C10.4349 13.9331 10.4893 13.8368 10.5616 13.755C10.6339 13.6733 10.7225 13.6078 10.8216 13.563C10.9207 13.5183 11.028 13.4951 11.1365 13.4951C11.245 13.4951 11.3524 13.5183 11.4514 13.563C11.5505 13.6078 11.6391 13.6733 11.7114 13.755C11.7837 13.8368 11.8381 13.9331 11.871 14.0376C11.904 14.142 11.9147 14.2524 11.9025 14.3613V16.4353ZM20.2104 16.6931C20.2098 16.9225 20.1192 17.1423 19.9584 17.3043C19.7976 17.4663 19.5798 17.5573 19.3527 17.5573H19.3288C19.102 17.557 18.8845 17.4659 18.7241 17.3039C18.5637 17.1419 18.4735 16.9222 18.4732 16.6931V14.0992C18.4735 13.8699 18.5637 13.65 18.724 13.4876C18.8843 13.3253 19.1018 13.2336 19.3288 13.2328H19.3527C19.58 13.2333 19.7978 13.3248 19.9585 13.4872C20.1193 13.6495 20.2098 13.8696 20.2104 14.0992V16.6931Z" fill="url(#paint2_linear_208_37)"/>
<defs>
<linearGradient id="paint0_linear_208_37" x1="0.28819" y1="0.413197" x2="25.0495" y2="58.6719" gradientUnits="userSpaceOnUse">
<stop stop-color="#FDD8EA"/>
<stop offset="1" stop-color="#B3F5FF"/>
</linearGradient>
<linearGradient id="paint1_linear_208_37" x1="-12.0488" y1="2.5" x2="17.3543" y2="41.2895" gradientUnits="userSpaceOnUse">
<stop stop-color="#FDD8EA"/>
<stop offset="1" stop-color="#B3F5FF"/>
</linearGradient>
<linearGradient id="paint2_linear_208_37" x1="-0.786037" y1="1.49999" x2="32.714" y2="32.5" gradientUnits="userSpaceOnUse">
<stop stop-color="#FDD8EA"/>
<stop offset="1" stop-color="#B3F5FF"/>
</linearGradient>
</defs>
</svg>
