<svg width="38" height="30" viewBox="0 0 38 30" fill="none" xmlns="http://www.w3.org/2000/svg">
<path d="M33.855 7.47654C33.8784 7.80465 33.8784 8.13283 33.8784 8.46094C33.8784 18.4687 26.2613 30 12.3394 30C8.05028 30 4.06593 28.7578 0.714355 26.6016C1.32375 26.6719 1.90963 26.6953 2.54248 26.6953C6.08148 26.6953 9.33935 25.5 11.9409 23.461C8.61279 23.3906 5.82371 21.211 4.86276 18.2109C5.33155 18.2812 5.80027 18.3281 6.2925 18.3281C6.97217 18.3281 7.65191 18.2343 8.28468 18.0703C4.81594 17.3671 2.21429 14.3203 2.21429 10.6406V10.5469C3.22207 11.1094 4.39404 11.461 5.63614 11.5078C3.59707 10.1484 2.26119 7.82809 2.26119 5.20307C2.26119 3.79685 2.63612 2.50779 3.29241 1.38278C7.01899 5.97652 12.6206 8.97647 18.9018 9.30466C18.7846 8.74215 18.7143 8.15627 18.7143 7.57032C18.7143 3.3984 22.0893 0 26.2846 0C28.4643 0 30.433 0.91406 31.8158 2.39062C33.5267 2.06252 35.1673 1.42967 36.6205 0.562504C36.058 2.32036 34.8627 3.79692 33.2924 4.73436C34.8159 4.57037 36.2924 4.1484 37.6518 3.56253C36.6207 5.06246 35.3315 6.39835 33.855 7.47654Z" fill="url(#paint0_linear_208_36)"/>
<defs>
<linearGradient id="paint0_linear_208_36" x1="0.714354" y1="-3.5" x2="30.2144" y2="30" gradientUnits="userSpaceOnUse">
<stop stop-color="#FCB3D7"/>
<stop offset="1" stop-color="#B3F5FF"/>
</linearGradient>
</defs>
</svg>
