<svg width="38.4" height="28" viewBox="0 0 43 31" fill="none" xmlns="http://www.w3.org/2000/svg">
<path d="M42.1085 4.97523C41.6178 3.12758 40.172 1.67242 38.3363 1.17859C35.0089 0.28125 21.6667 0.28125 21.6667 0.28125C21.6667 0.28125 8.32449 0.28125 4.99706 1.17859C3.16136 1.6725 1.71558 3.12758 1.22488 4.97523C0.333313 8.32422 0.333313 15.3116 0.333313 15.3116C0.333313 15.3116 0.333313 22.2989 1.22488 25.6479C1.71558 27.4955 3.16136 28.8901 4.99706 29.3839C8.32449 30.2813 21.6667 30.2812 21.6667 30.2812C21.6667 30.2812 35.0089 30.2813 38.3363 29.3839C40.172 28.8901 41.6178 27.4955 42.1085 25.6479C43 22.2989 43 15.3116 43 15.3116C43 15.3116 43 8.32422 42.1085 4.97523ZM17.303 21.6555V8.96758L28.4545 15.3117L17.303 21.6555Z" fill="url(#paint0_linear_208_43)"/>
<defs>
<linearGradient id="paint0_linear_208_43" x1="1.38495e-06" y1="-3" x2="43" y2="30" gradientUnits="userSpaceOnUse">
<stop stop-color="#FCB3D7"/>
<stop offset="1" stop-color="#78EDFF"/>
</linearGradient>
</defs>
</svg>
